<?xml version="1.0" encoding="utf-8"?>
<!-- Generator: Adobe Illustrator 24.0.2, SVG Export Plug-In . SVG Version: 6.00 Build 0)  -->
<svg version="1.1" id="Layer_1" xmlns="http://www.w3.org/2000/svg" xmlns:xlink="http://www.w3.org/1999/xlink" x="0px" y="0px"
	 viewBox="0 0 111.65 132.52" style="enable-background:new 0 0 111.65 132.52;" xml:space="preserve">
<style type="text/css">
	.st0{fill:#ffff;}
</style>
<g>
	
		<rect x="3" y="23.96" transform="matrix(0.8262 -0.5634 0.5634 0.8262 -8.3768 21.8346)" class="st0" width="56.41" height="1.07"/>
	
		<rect x="4.03" y="21.38" transform="matrix(0.8263 -0.5632 0.5632 0.8263 -7.7142 18.8039)" class="st0" width="45.2" height="1.07"/>
	<polygon class="st0" points="7.68,28.38 33.66,10.61 34.26,11.5 8.28,29.27 	"/>
	<polygon class="st0" points="7.71,22.61 18.49,15.16 19.1,16.04 8.32,23.49 	"/>
	<polygon class="st0" points="78.18,49.21 78.18,49.2 70.62,54.36 70.63,54.36 31.77,80.86 32.57,82.03 27.29,85.73 27.7,86.32 
		16.46,94.16 17.08,95.04 29.48,86.37 33.57,83.51 73.05,56.59 72.23,55.41 79.18,50.67 78.78,50.09 104.14,32.81 103.54,31.92 	"/>
	<polygon class="st0" points="80.33,53.49 80.33,53.48 72.24,58.99 72.24,59 34.64,84.65 35.44,85.82 29.78,89.76 30.18,90.33 
		19.16,98.04 19.78,98.91 30.79,91.21 30.8,91.22 36.44,87.28 36.45,87.29 74.18,61.56 73.37,60.38 81.33,54.96 80.93,54.37 
		104.1,38.57 103.5,37.69 	"/>
	<polygon class="st0" points="82.4,57.83 82.39,57.83 75.7,62.38 75.7,62.39 37.31,88.56 38.11,89.73 32.93,93.35 33.33,93.92 
		22.19,101.72 22.8,102.59 33.93,94.79 33.95,94.81 39.11,91.21 39.12,91.22 77.52,65.03 76.72,63.85 83.39,59.3 83,58.71 
		104.08,44.34 103.47,43.46 	"/>
	<polygon class="st0" points="85.55,61.43 85.55,61.42 78.91,65.94 78.92,65.95 40.1,92.3 40.92,93.51 34.3,98.12 34.71,98.71 
		25.52,105.14 26.14,106.01 36.63,98.68 36.63,98.67 43.69,93.74 81.07,68.37 80.26,67.18 86.55,62.89 86.15,62.31 104.04,50.12 
		103.44,49.24 	"/>
	<polygon class="st0" points="89.45,64.5 89.44,64.49 82.19,69.44 82.19,69.45 48.51,92.41 49.3,93.57 41.34,99.14 41.75,99.73 
		29.32,108.42 29.93,109.29 43.47,99.83 50.31,95.05 50.31,95.06 84.19,71.95 83.39,70.77 90.44,65.96 90.05,65.39 104.01,55.87 
		103.4,54.98 	"/>
	<polygon class="st0" points="98.08,64.78 97.89,64.48 89.37,70.29 56.77,92.52 57.58,93.71 48.8,99.84 49.2,100.43 33.79,111.21 
		34.4,112.08 50.9,100.55 59.39,94.61 91.17,72.95 90.37,71.77 98.89,65.96 98.38,65.22 98.69,65.66 103.98,61.92 103.36,61.05 	"/>
	<polygon class="st0" points="98.22,70.01 98.22,70 93.43,73.27 93.41,73.27 74.25,86.34 75.06,87.53 66.95,93.2 67.36,93.79 
		38.12,114.23 38.72,115.1 69.12,93.86 76.23,88.88 76.22,88.88 95.22,75.92 94.43,74.75 99.22,71.47 98.83,70.9 103.85,67.47 
		103.25,66.59 	"/>
	<polygon class="st0" points="99.18,75.31 99.08,75.17 94.56,78.25 94.55,78.25 79.34,88.61 80.14,89.8 73.06,94.75 73.47,95.34 
		42.65,116.88 43.26,117.75 75.66,95.12 75.66,95.11 81.88,90.77 96.36,80.89 95.56,79.72 100.08,76.63 99.58,75.91 103.03,73.55 
		102.63,72.96 	"/>
	<polygon class="st0" points="11.89,46.69 11.89,46.69 16.22,43.66 32.6,32.5 31.8,31.32 39,26.42 38.61,25.84 62.86,9.3 
		62.25,8.42 38,24.95 38,24.95 30.8,29.86 30.8,29.84 13.45,41.67 14.27,42.86 10.15,45.73 10.56,46.32 7.55,48.43 8.17,49.3 	"/>
	<polygon class="st0" points="14.62,50.58 14.62,50.58 18.89,47.59 39.14,33.78 38.33,32.61 43.92,28.79 43.55,28.25 69.94,10.09 
		69.33,9.22 42.95,27.37 42.92,27.32 37.34,31.13 15.8,45.82 16.61,47.01 12.9,49.6 13.31,50.18 7.51,54.23 8.13,55.11 	"/>
	<polygon class="st0" points="15.57,55.69 15.57,55.69 21.25,51.72 43.3,36.69 42.47,35.48 48.4,31.44 48.03,30.89 76.49,11.3 
		75.87,10.42 47.43,30.01 47.4,29.97 41.22,34.19 41.24,34.21 18.13,49.96 18.94,51.16 13.95,54.65 14.36,55.24 7.48,60.04 
		8.09,60.92 	"/>
	<polygon class="st0" points="17.85,59.89 17.85,59.89 24.03,55.57 47.46,39.6 46.65,38.41 52.9,34.14 52.49,33.53 82.97,12.98 
		82.37,12.1 51.47,32.92 51.49,32.95 45.63,36.96 20.46,54.12 21.29,55.32 15.54,59.33 15.95,59.91 7.52,65.8 8.13,66.68 	"/>
	<polygon class="st0" points="20.62,63.7 24.61,60.91 24.61,60.92 51.61,42.5 50.81,41.32 57.79,36.55 57.4,35.98 88.05,15.08 
		87.45,14.2 56.8,35.09 56.79,35.09 49.77,39.87 49.77,39.88 22.8,58.26 23.6,59.44 18.45,63.04 18.86,63.64 8.01,71.2 8.63,72.07 
		20.62,63.7 	"/>
	<polygon class="st0" points="23.3,67.61 27.86,64.44 55.78,45.4 54.97,44.22 62.7,38.95 62.3,38.37 93.79,16.9 93.19,16.02 
		61.7,37.49 61.69,37.47 53.5,43.06 53.5,43.07 25.13,62.41 25.95,63.61 21.08,67.01 21.49,67.59 8.97,76.34 9.58,77.21 
		23.31,67.62 	"/>
	<polygon class="st0" points="24.08,72.87 30.61,68.31 63.56,45.97 62.75,44.77 70.04,39.81 69.65,39.23 98.88,19.29 98.28,18.4 
		69.05,38.34 69.03,38.33 61.52,43.46 61.53,43.48 27.3,66.67 28.12,67.87 22.02,72.14 22.43,72.72 10.32,81.18 10.94,82.06 
		24.08,72.88 	"/>
	<polygon class="st0" points="24.89,78.04 30.67,74 66.45,49.61 65.65,48.44 72.98,43.45 72.58,42.87 103.52,21.77 102.91,20.89 
		71.98,41.99 71.97,41.98 64.65,46.97 64.64,46.96 28.07,71.91 28.88,73.09 22.69,77.42 23.09,78 12.04,85.72 12.65,86.6 
		24.9,78.04 	"/>
	<polygon class="st0" points="26.03,82.98 30.93,79.57 30.93,79.57 69.12,53.53 68.32,52.35 75.31,47.59 74.91,47.01 104.17,27.06 
		103.57,26.17 74.31,46.13 74.3,46.11 67.31,50.88 29.12,76.92 29.92,78.09 24.15,82.13 24.58,82.74 14.06,90.02 14.67,90.9 
		26.05,83.02 	"/>
	<polygon class="st0" points="47.09,119.46 99.91,82.65 100.53,83.52 47.7,120.34 	"/>
	<polygon class="st0" points="51.3,123.48 95.8,92.55 96.41,93.43 51.91,124.36 	"/>
	<polygon class="st0" points="67.06,118.36 86.6,104.77 87.21,105.64 67.66,119.23 	"/>
</g>
</svg>
